<?xml version="1.0"?>
<svg id="Layer_1" data-name="Layer 1" xmlns="http://www.w3.org/2000/svg" width="840.79" height="194.36" viewBox="0 0 840.79 194.36">
  <defs>
    
  </defs>
  <g>
    <path class="cls-1" d="m380.12,48.88h30.4s-.76-7.95-.94-15.95v-8.34c0-19.36-11.59-24.6-29.45-24.6h-23.89c-17.87,0-29.45,10.46-29.45,29.82v37.75c-.4,10.64-3.45,19.42-3.45,19.42,0,0,3.05,8.78,3.45,19.41v58.14c0,19.36,11.59,29.82,29.45,29.82h23.89c17.87,0,29.45-10.46,29.45-29.82v-14.1c.17-6.73.94-11.68.94-11.68h-30.4s.77,4.94.94,11.68v10.15c0,6.98-5.58,8.01-10.89,8.01h-3.96c-5.3,0-10.89-1.04-10.89-8.01V33.77c0-6.98,5.58-8.01,10.89-8.01h3.96c5.3,0,10.89,1.04,10.89,8.01v2.25c-.17,6.93-.94,12.87-.94,12.87Z"></path>
    <path class="cls-1" d="m521.37,0h-31.82s0,0,0,0h-1.31s1.29,5.24,1.27,11.74v-.02s-.11,62.39-.11,62.39h-30.31l.12-60.94c.08-7.49.96-13.17.96-13.17h-33.13s1.29,5.24,1.27,11.74v-.02s-.1,55.8-.1,55.8c-.39,10.66-3.45,19.46-3.45,19.46,0,0,2.8,8.07,3.38,18.11l-.14,76.11c-.08,7.48-.96,13.16-.96,13.16h33.13s-1.29-5.24-1.27-11.74v.02s.15-82.78.15-82.78h30.31l-.15,81.33c-.08,7.49-.96,13.17-.96,13.17h33.13s-1.29-5.24-1.27-11.74v.02s.31-169.48.31-169.48c.08-7.48.96-13.16.96-13.16Z"></path>
    <path class="cls-1" d="m548.33,0h-1.31s1.29,5.24,1.27,11.74v-.02s-.09,53.79-.09,53.79c-.04,11.54-3.49,21.48-3.49,21.48,0,0,2.92,8.41,3.41,18.74l-.14,75.48c-.08,7.48-.96,13.16-.96,13.16h76.68l.04-25.75v-1.31s-5.24,1.29-11.74,1.27l.07.03h-33.19l.13-68.75h22.88l-.07.03c6.5-.02,11.74,1.27,11.74,1.27v-1.31l.04-25.75h-.04v-1.31s-5.24,1.29-11.74,1.27l.07.03h-22.83l.09-48.36h33.2l-.07.03c6.5-.02,11.74,1.27,11.74,1.27v-1.31l.04-25.75h-75.74Z"></path>
    <path class="cls-1" d="m300.9,0h-28.35s1.29,5.24,1.27,11.74v-.02s-.15,81.47-.15,81.47L242.87,0h-27.41s1.29,5.24,1.27,11.74v-.02s-.1,55.36-.1,55.36c-.32,10.86-3.46,19.91-3.46,19.91,0,0,2.83,8.16,3.39,18.27l-.14,75.95c-.08,7.48-.96,13.16-.96,13.16h28.35s-1.29-5.24-1.27-11.74v.02s.18-99.37.18-99.37l30.78,93.08.03-.06v6.45s-.07-.12-.07-.12c.02,6.5-1.27,11.74-1.27,11.74h28.71s-1.29-5.24-1.27-11.74v.02s.31-169.48.31-169.48c.08-7.48.96-13.16.96-13.16Z"></path>
    <path class="cls-1" d="m79.19,168.5l-15.73-49.24c11.21-9.26,20.86-19.28,20.86-34.59V29.82c0-19.36-11.59-29.82-29.45-29.82H2.22s1.29,5.24,1.27,11.74v-.02s-.1,56.84-.1,56.84c-.54,10.19-3.4,18.43-3.4,18.43,0,0,2.64,7.61,3.33,17.24l-.15,76.96c-.08,7.49-.96,13.17-.96,13.17h28.35s-1.29-5.24-1.27-11.74v.02s.02-17.32.02-17.32c.08-16.59,10.75-27.13,22.67-36.85-3.57,5.94-6.5,13.34-4.9,18.86l7.26,25.01c3.86,13.3,3.6,22.02,3.6,22.02h29.51s0,0,0,0h1.99s-5.35-10.51-10.26-25.86h0Zm-49.78-53.47l.17-89.27h17.44c5.3,0,10.89,1.04,10.89,8.01v42.96c0,19.69-17.25,25.96-28.5,38.3Z"></path>
    <path class="cls-1" d="m701.8,119.26c11.21-9.26,20.86-19.28,20.86-34.59V29.82c0-19.36-11.59-29.82-29.45-29.82h-52.65s1.29,5.24,1.27,11.74v-.02s-.1,56.84-.1,56.84c-.54,10.19-3.4,18.43-3.4,18.43,0,0,2.64,7.61,3.33,17.24l-.15,76.96c-.07,7.49-.96,13.17-.96,13.17h28.35s-1.29-5.24-1.27-11.74v.02s.02-17.32.02-17.32c.08-16.59,10.75-27.13,22.67-36.85-3.57,5.94-6.5,13.34-4.9,18.86l7.26,25.01c3.86,13.3,3.6,22.02,3.6,22.02h31.5s-5.35-10.51-10.25-25.85l-15.74-49.25Zm-34.05-4.23l.17-89.27h17.44c5.3,0,10.89,1.04,10.89,8.01v42.96c0,19.69-17.25,25.96-28.5,38.3Z"></path>
    <path class="cls-1" d="m194.39,165.51l-21.24-144.69h0c-1.78-12.13-.92-20.83-.92-20.83h-49.45s.88,8.61-.92,20.83h0l-21.17,144.21h0c-2.75,18.7-6.94,29.32-6.94,29.32h30.18s-.63-10.3,1.09-22.03h0s3.49-23.77,3.49-23.77h33.58l3.55,24.2h0c1.79,12.2,1.03,21.59,1.03,21.59h34.57s-4.06-9.75-6.87-28.85h0Zm-62.09-42.7l13.01-88.6,13.01,88.6h-26.02Z"></path>
    <path class="cls-1" d="m786.9,48.88h29.1s-1.33-7.56-1.33-19.06c0-19.36-11.59-29.82-29.45-29.82h-19.04c-20.14,0-27.74,9.91-27.74,25.16v23.09c0,44.01,47.38,54.94,47.38,96.38v17.41c-.03,4.88-3.63,6.54-6.98,6.52,0,0-3.11-.02-4.8-.03-5.3-.03-8.71-1.1-8.67-8.08v-11.81c.17-5.64.94-9.88.94-9.88h-29.1s1.29,5.24,1.27,11.74l.03-.07v13.81c-.11,19.36,11.41,29.89,29.28,29.99l19.04.14c20.14.12,27.8-9.75,27.89-25v-32.12c0-47.08-47.33-60.63-47.33-92.91v-12.03c0-4.88,3.59-6.56,6.94-6.56h4.74c5.3,0,8.77,1.04,8.77,8.01v2.83c-.17,7.34-.94,12.28-.94,12.28Z"></path>
  </g>
  <path class="cls-1" d="m819.4,194.36v-11.38l.06-.43-.5.06h-2.97v-2.41h9.77v2.41h-2.97l-.56-.06.12.43v11.38h-2.97Zm18.55,0v-10.57h-.31l-2.29,8.04h-2.47l-2.29-8.04h-.37v10.57h-2.78v-14.16h4.2l2.47,8.9,2.47-8.9h4.2v14.16h-2.84Z"></path>
</svg>